<svg width="60" height="40" viewBox="0 0 60 40" xmlns="http://www.w3.org/2000/svg">
  <!-- Blue background -->
  <rect width="60" height="40" fill="#002395"/>
  <!-- White cross -->
  <rect x="25" y="0" width="10" height="40" fill="#FFFFFF"/>
  <rect x="0" y="15" width="60" height="10" fill="#FFFFFF"/>
  <!-- Four fleurs-de-lis -->
  <!-- Top left -->
  <g transform="translate(10, 5)">
    <path d="M2.5 1 L3 2.5 L2.5 4 L3.5 4 L3 2.5 L4 2.5 L3.5 1.5 L2.5 1.5 Z" fill="#FFFFFF"/>
    <circle cx="3" cy="2.5" r="0.7" fill="#FFFFFF"/>
  </g>
  <!-- Top right -->
  <g transform="translate(48, 5)">
    <path d="M2.5 1 L3 2.5 L2.5 4 L3.5 4 L3 2.5 L4 2.5 L3.5 1.5 L2.5 1.5 Z" fill="#FFFFFF"/>
    <circle cx="3" cy="2.5" r="0.7" fill="#FFFFFF"/>
  </g>
  <!-- Bottom left -->
  <g transform="translate(10, 29)">
    <path d="M2.5 1 L3 2.5 L2.5 4 L3.5 4 L3 2.5 L4 2.5 L3.5 1.5 L2.5 1.5 Z" fill="#FFFFFF"/>
    <circle cx="3" cy="2.5" r="0.7" fill="#FFFFFF"/>
  </g>
  <!-- Bottom right -->
  <g transform="translate(48, 29)">
    <path d="M2.5 1 L3 2.5 L2.5 4 L3.5 4 L3 2.5 L4 2.5 L3.5 1.5 L2.5 1.5 Z" fill="#FFFFFF"/>
    <circle cx="3" cy="2.5" r="0.7" fill="#FFFFFF"/>
  </g>
</svg>
