<svg xmlns="http://www.w3.org/2000/svg" viewBox="0 0 100 100" width="100" height="100">
  <!-- Dark blue rounded square background -->
  <rect width="100" height="100" fill="#1A2B47" rx="20"/>
  
  <!-- Brain icon - white outline, bold and clean -->
  <g fill="none" stroke="#FFFFFF" stroke-width="5" stroke-linecap="round" stroke-linejoin="round">
    <!-- Main brain outline - left hemisphere -->
    <path d="M 28 22 
             Q 20 25 20 35 
             Q 20 45 22 55 
             Q 24 65 28 72 
             Q 32 78 38 80 
             Q 42 81 45 79 
             Q 48 77 50 73" />
    
    <!-- Main brain outline - right hemisphere -->
    <path d="M 50 73 
             Q 52 77 55 79 
             Q 58 81 62 80 
             Q 68 78 72 72 
             Q 76 65 78 55 
             Q 80 45 80 35 
             Q 80 25 72 22" />
    
    <!-- Top connecting curve -->
    <path d="M 28 22 Q 40 18 50 20 Q 60 18 72 22" />
    
    <!-- Central vertical line separating hemispheres -->
    <line x1="50" y1="20" x2="50" y2="80" stroke-width="4"/>
    
    <!-- Left hemisphere folds (curved lines) -->
    <path d="M 28 35 Q 26 40 28 45" />
    <path d="M 30 45 Q 28 50 30 55" />
    <path d="M 32 55 Q 30 60 32 65" />
    <path d="M 35 50 Q 33 55 35 60" />
    
    <!-- Right hemisphere folds (curved lines) -->
    <path d="M 72 35 Q 74 40 72 45" />
    <path d="M 70 45 Q 72 50 70 55" />
    <path d="M 68 55 Q 70 60 68 65" />
    <path d="M 65 50 Q 67 55 65 60" />
  </g>
</svg>
